<svg height="512pt" viewBox="0 -17 512 512" width="512pt" xmlns="http://www.w3.org/2000/svg"><path d="m324.265625 477.867188c-84.691406 0-153.597656-68.90625-153.597656-153.601563 0-84.691406 68.90625-153.597656 153.597656-153.597656 84.695313 0 153.601563 68.90625 153.601563 153.597656 0 84.695313-68.90625 153.601563-153.601563 153.601563zm0-290.132813c-75.28125 0-136.53125 61.25-136.53125 136.53125s61.25 136.535156 136.53125 136.535156 136.535156-61.253906 136.535156-136.535156-61.253906-136.53125-136.535156-136.53125zm0 0"/><path d="m341.332031 384h-51.199219c-4.710937 0-8.53125-3.8125-8.53125-8.535156 0-4.71875 3.820313-8.53125 8.53125-8.53125h51.199219c9.414063 0 17.066407-7.65625 17.066407-17.066406 0-9.414063-7.652344-17.066407-17.066407-17.066407h-34.132812c-18.824219 0-34.132813-15.308593-34.132813-34.132812s15.308594-34.132813 34.132813-34.132813h51.199219c4.710937 0 8.535156 3.8125 8.535156 8.53125s-3.824219 8.535156-8.535156 8.535156h-51.199219c-9.410157 0-17.066407 7.652344-17.066407 17.066407 0 9.410156 7.65625 17.066406 17.066407 17.066406h34.132812c18.824219 0 34.132813 15.308594 34.132813 34.132813 0 18.824218-15.308594 34.132812-34.132813 34.132812zm0 0"/><path d="m324.265625 401.066406c-4.710937 0-8.53125-3.8125-8.53125-8.53125v-136.535156c0-4.71875 3.820313-8.535156 8.53125-8.535156s8.535156 3.816406 8.535156 8.535156v136.535156c0 4.71875-3.824219 8.53125-8.535156 8.53125zm0 0"/><path d="m213.332031 332.800781c-4.710937 0-8.53125-3.816406-8.53125-8.535156 0-65.875 53.589844-119.464844 119.464844-119.464844 4.710937 0 8.535156 3.8125 8.535156 8.53125s-3.824219 8.535157-8.535156 8.535157c-56.464844 0-102.398437 45.933593-102.398437 102.398437 0 4.71875-3.824219 8.535156-8.535157 8.535156zm0 0"/><path d="m324.265625 443.734375c-4.710937 0-8.53125-3.816406-8.53125-8.535156s3.820313-8.53125 8.53125-8.53125c56.464844 0 102.402344-45.9375 102.402344-102.402344 0-4.71875 3.820312-8.53125 8.53125-8.53125 4.710937 0 8.535156 3.8125 8.535156 8.53125 0 65.878906-53.589844 119.46875-119.46875 119.46875zm0 0"/><path d="m247.464844 170.667969h-187.730469c-4.710937 0-8.535156-3.816407-8.535156-8.535157v-51.199218c0-4.71875 3.824219-8.535156 8.535156-8.535156h187.730469c4.710937 0 8.535156 3.816406 8.535156 8.535156v51.199218c0 4.71875-3.824219 8.535157-8.535156 8.535157zm-179.199219-17.066407h170.667969v-34.136718h-170.667969zm0 0"/><path d="m273.066406 119.464844h-187.734375c-4.710937 0-8.53125-3.8125-8.53125-8.53125v-51.199219c0-4.71875 3.820313-8.535156 8.53125-8.535156h187.734375c4.710938 0 8.535156 3.816406 8.535156 8.535156v51.199219c0 4.71875-3.824218 8.53125-8.535156 8.53125zm-179.199218-17.066406h170.667968v-34.132813h-170.667968zm0 0"/><path d="m247.464844 68.265625h-187.730469c-4.710937 0-8.535156-3.8125-8.535156-8.53125v-51.199219c0-4.722656 3.824219-8.535156 8.535156-8.535156h187.730469c4.710937 0 8.535156 3.8125 8.535156 8.535156v51.199219c0 4.71875-3.824219 8.53125-8.535156 8.53125zm-179.199219-17.066406h170.667969v-34.132813h-170.667969zm0 0"/><path d="m230.886719 221.867188h-145.554688c-4.710937 0-8.53125-3.816407-8.53125-8.535157v-51.199219c0-4.71875 3.820313-8.53125 8.53125-8.53125h187.734375c4.710938 0 8.535156 3.8125 8.535156 8.53125v26.539063c0 3.550781-2.195312 6.722656-5.523437 7.988281-14.632813 5.519532-27.988281 13.328125-39.695313 23.203125-1.535156 1.296875-3.492187 2.003907-5.496093 2.003907zm-137.019531-17.066407h133.945312c11.085938-8.953125 23.398438-16.300781 36.722656-21.90625v-12.226562h-170.667968zm179.199218-16.128906h.085938zm0 0"/><path d="m192.171875 273.066406h-132.4375c-4.710937 0-8.535156-3.8125-8.535156-8.53125v-51.203125c0-4.71875 3.824219-8.53125 8.535156-8.53125h171.152344c3.582031 0 6.785156 2.242188 8.011719 5.605469 1.230468 3.363281.222656 7.140625-2.515626 9.445312-15.453124 13.015626-28.058593 29.6875-36.4375 48.199219-1.382812 3.0625-4.421874 5.015625-7.773437 5.015625zm-123.90625-17.066406h118.511719c6.144531-12.339844 13.960937-23.867188 23.125-34.132812h-141.636719zm0 0"/><path d="m179.625 324.265625h-94.292969c-4.710937 0-8.53125-3.8125-8.53125-8.53125v-51.199219c0-4.722656 3.820313-8.535156 8.53125-8.535156h106.839844c2.898437 0 5.597656 1.476562 7.167969 3.910156 1.570312 2.429688 1.800781 5.511719.605468 8.148438-6.84375 15.101562-10.8125 31.308594-11.792968 48.179687-.265625 4.503907-4.003906 8.027344-8.527344 8.027344zm-85.757812-17.066406h77.917968c1.289063-11.722657 3.890625-23.148438 7.765625-34.132813h-85.683593zm0 0"/><path d="m185.601562 375.464844h-125.867187c-4.710937 0-8.535156-3.8125-8.535156-8.53125v-51.199219c0-4.71875 3.824219-8.535156 8.535156-8.535156h119.890625c2.347656 0 4.601562.964843 6.214844 2.671875 1.613281 1.714844 2.449218 4.011718 2.3125 6.355468l-.15625 2.355469c-.125 1.894531-.261719 3.765625-.261719 5.683594 0 13.644531 2.019531 27.152344 6.023437 40.160156.792969 2.59375.316407 5.398438-1.296874 7.585938-1.605469 2.175781-4.15625 3.453125-6.859376 3.453125zm-117.335937-17.066406h106.234375c-2.554688-11.175782-3.832031-22.613282-3.832031-34.132813h-102.402344zm0 0"/><path d="m213.769531 426.667969h-128.4375c-4.710937 0-8.53125-3.816407-8.53125-8.535157v-51.199218c0-4.71875 3.820313-8.535156 8.53125-8.535156h100.269531c3.746094 0 7.054688 2.441406 8.15625 6.027343 5.425782 17.664063 14.34375 33.875 26.511719 48.179688 2.152344 2.53125 2.648438 6.082031 1.246094 9.101562-1.398437 3.023438-4.417969 4.960938-7.746094 4.960938zm-119.902343-17.066407h102.742187c-7.160156-10.652343-12.914063-22.070312-17.179687-34.136718h-85.5625zm0 0"/><path d="m503.464844 477.867188h-494.929688c-4.710937 0-8.535156-3.816407-8.535156-8.535157s3.824219-8.53125 8.535156-8.53125h494.929688c4.710937 0 8.535156 3.8125 8.535156 8.53125s-3.824219 8.535157-8.535156 8.535157zm0 0"/><path d="m324.265625 477.867188h-264.53125c-4.710937 0-8.535156-3.816407-8.535156-8.535157v-51.199219c0-4.71875 3.824219-8.53125 8.535156-8.53125h154.035156c2.5 0 4.878907 1.109376 6.5 3.019532 26.054688 30.609375 63.957031 48.179687 103.996094 48.179687 4.710937 0 8.535156 3.8125 8.535156 8.53125s-3.824219 8.535157-8.535156 8.535157zm-256-17.066407h185.703125c-16.453125-8.5-31.410156-20.003906-44.074219-34.125l-141.628906-.007812zm0 0"/></svg>